#!OML:ASF X:\für Bonn\!DataBase\2005_08_12_Daniel\c3d\Daniel.ASF
:FULLY-SPECIFIED
:DEGREES
31
root -40.3477 14.9877 -1.16444 410.819 90.4191 -2117.39
lowerback 35.8509 -2.58423 0.835217
upperback 6.3626 -2.38977 -1.81888
thorax -10.9745 -0.785771 -1.49444
lowerneck -4.47033 0.267373 -5.04359
upperneck -9.88867 0.685799 -0.402541
head -2.37984 0.638247 0.71618
rclavicle 1.03368e-014 9.93923e-015
rhumerus -8.91375 12.632 -96.0165
rradius 44.7116
rwrist -3.76724
rhand -35.4489 23.7728
rfingers 7.12502
rthumb -8.57803 -6.03299
lclavicle 1.03368e-014 9.93923e-015
lhumerus -7.06374 -6.37029 88.2621
lradius 52.5279
lwrist 17.3127
lhand -12.1379 -6.68285
lfingers 7.12502
lthumb 13.9241 22.8309
rfemur -42.3216 -4.04005 21.8053
rtibia 85.6065
rfoot -30.8863 7.45012
rtoes -9.29046
lfemur -38.5522 -3.45555 -21.9936
ltibia 85.9598
lfoot -34.4744 4.36025
ltoes 26.382
32
root -40.2065 14.9859 -1.15432 408.233 90.5071 -2119.87
lowerback 35.4514 -2.5925 0.980815
upperback 5.95852 -2.41142 -1.81282
thorax -11.288 -0.82568 -1.55613
lowerneck -4.26335 0.31379 -4.93192
upperneck -9.52182 0.721662 -0.41067
head -2.29408 0.637276 0.694147
rclavicle 1.66979e-014 2.78299e-015
rhumerus -6.26521 14.5498 -96.004
rradius 47.6289
rwrist -2.8339
rhand -35.4368 23.7969
rfingers 7.12502
rthumb -8.56634 -6.00935
lclavicle 1.66979e-014 2.78299e-015
lhumerus -3.99166 -7.78231 87.7091
lradius 54.8001
lwrist 17.2856
lhand -11.818 -7.01256
lfingers 7.12502
lthumb 14.2324 22.4798
rfemur -41.1352 -4.01328 21.8709
rtibia 85.107
rfoot -31.2515 7.54702
rtoes -8.84154
lfemur -37.7506 -3.26768 -21.9197
ltibia 85.822
lfoot -34.5404 4.27258
ltoes 26.6881
33
root -40.049 15.0015 -1.14641 409.023 90.5896 -2118.98
lowerback 34.754 -2.60272 1.15747
upperback 5.65128 -2.43085 -1.80928
thorax -11.4982 -0.868456 -1.63542
lowerneck -3.72531 0.375892 -4.92291
upperneck -9.2975 0.760007 -0.38008
head -2.31554 0.643227 0.702088
rclavicle 2.18663e-014 7.15625e-015
rhumerus -3.31664 16.6819 -95.7184
rradius 50.0147
rwrist -2.3128
rhand -35.511 23.8269
rfingers 7.12502
rthumb -8.63789 -5.97639
lclavicle 2.18663e-014 7.15625e-015
lhumerus -1.05842 -9.00561 87.0953
lradius 57.0637
lwrist 17.0325
lhand -11.6311 -7.35993
lfingers 7.12502
lthumb 14.4124 22.1197
rfemur -39.7271 -3.98405 21.9359
rtibia 84.34
rfoot -31.6221 7.64357
rtoes -8.58477
lfemur -36.7613 -3.06999 -21.8261
ltibia 85.4566
lfoot -34.626 4.18482
ltoes 26.9808
34
root -39.871 15.0348 -1.13788 411.185 90.6581 -2116.73
lowerback 33.7121 -2.59394 1.3496
upperback 5.36919 -2.42597 -1.81497
thorax -11.4206 -0.90137 -1.75882
lowerneck -2.70645 0.431893 -5.10021
upperneck -9.32208 0.76653 -0.223377
head -2.50828 0.641758 0.783067
rclavicle 1.86858e-014 1.59028e-015
rhumerus -0.549894 18.6191 -95.2851
rradius 52.557
rwrist -1.88792
rhand -35.4217 23.904
rfingers 7.12502
rthumb -8.55178 -5.90283
lclavicle 1.86858e-014 1.59028e-015
lhumerus 1.83458 -10.0949 86.4578
lradius 59.3132
lwrist 16.5484
lhand -11.5958 -7.60058
lfingers 7.12502
lthumb 14.4465 21.8766
rfemur -38.1243 -3.95667 22.0167
rtibia 83.3249
rfoot -31.9479 7.68488
rtoes -8.4393
lfemur -35.5589 -2.76109 -21.7228
ltibia 84.8758
lfoot -34.7424 4.07769
ltoes 27.1613
35
root -39.6797 15.0745 -1.13113 413.815 90.7112 -2113.97
lowerback 32.6946 -2.58065 1.52433
upperback 5.08402 -2.42116 -1.81783
thorax -11.3435 -0.932857 -1.87081
lowerneck -2.04068 0.495171 -5.2506
upperneck -9.09808 0.805463 -0.071665
head -2.55717 0.649715 0.85743
rclavicle -2.38542e-014 -2.5842e-014
rhumerus 1.62589 20.2964 -94.8017
rradius 55.6213
rwrist -1.2198
rhand -35.2796 23.8628
rfingers 7.12502
rthumb -8.41458 -5.94959
lclavicle -2.38542e-014 -2.5842e-014
lhumerus 4.57735 -11.0692 85.7665
lradius 61.7409
lwrist 15.9583
lhand -11.6848 -7.62225
lfingers 7.12502
lthumb 14.3608 21.861
rfemur -36.3839 -3.95205 22.075
rtibia 82.1567
rfoot -32.2895 7.66963
rtoes -8.41278
lfemur -34.1483 -2.39658 -21.6079
ltibia 84.1169
lfoot -34.8335 3.90275
ltoes 27.2094
36
root -39.4781 15.1203 -1.12403 421.254 90.7597 -2106.39
lowerback 31.7208 -2.54082 1.69915
upperback 4.76535 -2.38355 -1.81011
thorax -11.3086 -0.949892 -1.98411
lowerneck -1.6173 0.555687 -5.3292
upperneck -8.68771 0.853013 0.0158053
head -2.49948 0.657203 0.898059
rclavicle -1.35174e-014 -3.45885e-014
rhumerus 3.61183 21.8072 -94.2705
rradius 58.3695
rwrist -0.35979
rhand -35.1378 24.2405
rfingers 7.12502
rthumb -8.27776 -5.57735
lclavicle -1.35174e-014 -3.45885e-014
lhumerus 7.11801 -11.969 85.0866
lradius 64.348
lwrist 15.2848
lhand -11.9511 -7.38091
lfingers 7.12502
lthumb 14.1041 22.1204
rfemur -34.5325 -3.9 22.1764
rtibia 80.8458
rfoot -32.6709 7.61305
rtoes -8.46525
lfemur -32.5799 -1.95045 -21.4445
ltibia 83.1863
lfoot -34.9317 3.76476
ltoes 26.9428
37
root -39.266 15.1764 -1.11779 426.274 90.7903 -2101.21
lowerback 30.7937 -2.50074 1.83824
upperback 4.4387 -2.35757 -1.81624
thorax -11.2918 -0.970101 -2.08833
lowerneck -1.33734 0.622032 -5.38334
upperneck -8.14817 0.920294 0.131092
head -2.37411 0.670344 0.942585
rclavicle -3.18055e-015 -1.59028e-015
rhumerus 5.57136 23.2754 -93.6027
rradius 60.6976
rwrist 0.631307
rhand -35.1476 24.7672
rfingers 7.12502
rthumb -8.28722 -5.05029
lclavicle -3.18055e-015 -1.59028e-015
lhumerus 9.45387 -12.8142 84.395
lradius 67.0392
lwrist 14.4856
lhand -12.317 -7.09689
lfingers 7.12502
lthumb 13.7515 22.4287
rfemur -32.5601 -3.9035 22.2173
rtibia 79.4086
rfoot -32.971 7.52061
rtoes -8.92333
lfemur -30.8675 -1.56451 -21.325
ltibia 82.0672
lfoot -34.9825 3.65081
ltoes 26.5292
38
root -39.0423 15.2444 -1.1118 432.709 90.8339 -2094.59
lowerback 29.7592 -2.44585 1.99424
upperback 4.47873 -2.30954 -1.74952
thorax -11.5358 -1.00035 -2.3032
lowerneck -0.986155 0.676078 -5.30754
upperneck -7.61423 0.960728 0.1367
head -2.26084 0.669766 0.929627
rclavicle -1.19271e-014 -1.90833e-014
rhumerus 7.47541 24.6283 -92.8633
rradius 62.7359
rwrist 1.75851
rhand -35.1918 25.4036
rfingers 7.12502
rthumb -8.32987 -4.41215
lclavicle -1.19271e-014 -1.90833e-014
lhumerus 11.5701 -13.6677 83.6828
lradius 69.7335
lwrist 13.7397
lhand -12.7072 -6.94053
lfingers 7.12502
lthumb 13.3754 22.6101
rfemur -30.576 -3.91821 22.2672
rtibia 77.8619
rfoot -32.9823 7.33578
rtoes -9.52016
lfemur -29.0245 -1.26429 -21.1938
ltibia 80.7518
lfoot -34.8904 3.61081
ltoes 25.8243
39
root -38.8109 15.3281 -1.10551 439.873 90.8773 -2087.21
lowerback 28.9792 -2.37526 2.11397
upperback 4.11628 -2.24433 -1.75694
thorax -11.5612 -0.999719 -2.41169
lowerneck -0.595279 0.726798 -5.28037
upperneck -7.073 0.997424 0.186454
head -2.15395 0.668207 0.93921
rclavicle -6.36111e-015 -1.03368e-014
rhumerus 9.41536 25.9449 -91.953
rradius 64.5521
rwrist 2.81742
rhand -35.2692 25.9412
rfingers 7.12502
rthumb -8.40453 -3.87161
lclavicle -6.36111e-015 -1.03368e-014
lhumerus 13.5831 -14.5513 82.9266
lradius 72.303
lwrist 13.0334
lhand -13.1479 -6.98853
lfingers 7.12502
lthumb 12.9507 22.5896
rfemur -28.5785 -3.94074 22.3065
rtibia 76.1964
rfoot -32.5179 7.06974
rtoes -10.1838
lfemur -27.0729 -1.00275 -21.0795
ltibia 79.2365
lfoot -34.425 3.66693
ltoes 24.5754
40
root -38.5708 15.4321 -1.1 445.413 90.917 -2081.44
lowerback 28.3007 -2.31739 2.20007
upperback 3.73798 -2.19959 -1.74633
thorax -11.6509 -1.00624 -2.47048
lowerneck -0.299599 0.801677 -5.27989
upperneck -6.30246 1.07121 0.193401
head -1.95696 0.682252 0.938433
rclavicle 1.19271e-014 -1.19271e-014
rhumerus 11.2035 27.2613 -90.9722
rradius 66.3619
rwrist 3.66396
rhand -35.2243 26.4714
rfingers 7.12502
rthumb -8.36122 -3.34312
lclavicle 1.19271e-014 -1.19271e-014
lhumerus 15.3661 -15.3974 82.1732
lradius 74.8641
lwrist 12.3621
lhand -13.567 -7.27985
lfingers 7.12502
lthumb 12.5466 22.3234
rfemur -26.5168 -3.95942 22.3021
rtibia 74.4162
rfoot -31.5731 6.77914
rtoes -10.7041
lfemur -25.0459 -0.807748 -20.9894
ltibia 77.5177
lfoot -33.6016 3.76419
ltoes 23.109
41
root -38.3204 15.5513 -1.09461 451.716 90.9858 -2074.83
lowerback 27.6832 -2.25784 2.30968
upperback 3.40193 -2.14086 -1.75473
thorax -11.72 -1.00495 -2.56928
lowerneck -0.136605 0.862335 -5.18292
upperneck -5.37989 1.13708 0.163274
head -1.68757 0.689043 0.9092
rclavicle 6.75868e-015 3.97569e-015
rhumerus 12.8615 28.5319 -89.8888
rradius 68.3941
rwrist 4.19179
rhand -35.0913 26.7426
rfingers 7.12502
rthumb -8.23287 -3.07697
lclavicle 6.75868e-015 3.97569e-015
lhumerus 16.93 -16.2858 81.3788
lradius 77.2575
lwrist 11.7794
lhand -13.9733 -8.04595
lfingers 7.12502
lthumb 12.1548 21.5809
rfemur -24.4027 -4.00079 22.3054
rtibia 72.5471
rfoot -30.1637 6.41678
rtoes -11.0337
lfemur -22.8957 -0.60989 -20.867
ltibia 75.6209
lfoot -32.4851 3.86959
ltoes 21.393
42
root -38.0523 15.6851 -1.08947 458.328 91.065 -2067.86
lowerback 26.9123 -2.18879 2.41938
upperback 3.13014 -2.0704 -1.77092
thorax -11.6299 -0.994877 -2.68272
lowerneck 0.18102 0.923345 -5.17875
upperneck -4.50002 1.1976 0.207544
head -1.46341 0.695916 0.919783
rclavicle 3.04141e-014 1.11319e-014
rhumerus 14.3375 29.7939 -88.714
rradius 70.4819
rwrist 4.24099
rhand -34.9634 27.1973
rfingers 7.12502
rthumb -8.10942 -2.62708
lclavicle 3.04141e-014 1.11319e-014
lhumerus 18.2842 -17.1849 80.5417
lradius 79.3914
lwrist 11.2824
lhand -14.4288 -9.21507
lfingers 7.12502
lthumb 11.7156 20.4373
rfemur -22.2248 -4.00551 22.2847
rtibia 70.5527
rfoot -28.2818 5.94103
rtoes -11.4177
lfemur -20.5902 -0.423259 -20.7575
ltibia 73.5522
lfoot -31.0342 4.04482
ltoes 19.2255
43
root -37.7645 15.8306 -1.08429 464.81 91.1187 -2060.97
lowerback 25.9732 -2.10144 2.47535
upperback 2.90066 -1.99333 -1.7842
thorax -11.3947 -0.976155 -2.76487
lowerneck 0.880308 0.99518 -5.28318
upperneck -3.8162 1.24861 0.284141
head -1.3708 0.704371 0.959172
rclavicle -6.55989e-015 -8.74653e-015
rhumerus 15.5611 31.0094 -87.5094
rradius 72.4468
rwrist 3.84271
rhand -34.7801 27.8731
rfingers 7.12502
rthumb -7.93256 -1.95804
lclavicle -6.55989e-015 -8.74653e-015
lhumerus 19.3213 -18.1091 79.7042
lradius 81.6749
lwrist 10.7777
lhand -14.84 -10.3003
lfingers 7.12502
lthumb 11.3191 19.3742
rfemur -19.9303 -3.98821 22.1972
rtibia 68.3944
rfoot -25.9112 5.40391
rtoes -11.5591
lfemur -18.1935 -0.269945 -20.6907
ltibia 71.3694
lfoot -29.1083 4.2139
ltoes 17.0693
44
root -37.4542 15.9894 -1.07825 471.293 91.21 -2054.08
lowerback 24.8846 -2.0021 2.57216
upperback 2.67245 -1.89625 -1.82138
thorax -11.0735 -0.949542 -2.90426
lowerneck 1.80068 1.07495 -5.3518
upperneck -3.15531 1.29777 0.343611
head -1.32362 0.713102 0.986532
rclavicle 9.93923e-016 -3.18055e-015
rhumerus 16.3016 32.0247 -86.5425
rradius 74.3743
rwrist 3.24758
rhand -34.5424 28.8607
rfingers 7.12502
rthumb -7.70308 -0.978952
lclavicle 9.93923e-016 -3.18055e-015
lhumerus 20.0442 -19.0998 78.8442
lradius 84.0836
lwrist 10.3369
lhand -15.1609 -11.2579
lfingers 7.12502
lthumb 11.0096 18.4334
rfemur -17.492 -3.90554 22.1178
rtibia 66.0123
rfoot -22.9281 4.8268
rtoes -11.1884
lfemur -15.823 -0.144602 -20.6177
ltibia 69.1652
lfoot -26.6546 4.51101
ltoes 14.8152
